<?xml version="1.0" encoding="utf-8"?>
<!-- Generator: Adobe Illustrator 26.0.3, SVG Export Plug-In . SVG Version: 6.00 Build 0)  -->
<svg version="1.1" id="Layer_1" xmlns="http://www.w3.org/2000/svg" xmlns:xlink="http://www.w3.org/1999/xlink" x="0px" y="0px"
	 viewBox="0 0 600 600" style="enable-background:new 0 0 600 600;" xml:space="preserve">
<style type="text/css">
	.st0{fill:#1B2F42;}
</style>
<g>
	<path class="st0" d="M36.4,401.1c-3.7-9.4-6.5-18.4-9-27.4c-7.3-27.1-10.7-54.8-9.6-82.9c2.9-69.4,27.3-130.2,74.2-181.5
		c42-45.9,93.9-74.8,155-86.5c59.3-11.4,116.8-4.4,171.6,21.1c61.1,28.4,106.4,73.3,136,133.9c14.6,29.9,23.7,61.6,26.5,94.9
		c7.2,83.8-17.6,157-73.9,219.4c-17.4,19.3-37.5,35.4-59.7,49c-1.8,1.1-2.7,1.1-3.9-0.8c-27.1-41.5-54.3-83-81.5-124.5
		c-9.9-15.2-19.8-30.4-29.8-45.5c-1.3-1.9-0.9-2.6,1.1-3.4c29.5-12.4,58.1-26.7,84.9-44.2c20.2-13.2,39.1-28,55.4-45.9
		c13.7-15.1,25.2-31.7,32.2-51c7.9-21.6,11.8-43.9,8.6-67c-3.2-23.1-15-40.5-35.2-52.1c-14.4-8.3-30.2-12.3-46.5-14.7
		c-15.9-2.3-31.9-2.8-48-2.3c-16.5,0.5-32.9,2.4-49.3,3.9c-16.5,1.5-33,3.1-49.5,4.7c-18.2,1.7-36.4,3.4-54.6,5.1
		c-16.2,1.5-32.4,3-48.6,4.6c-20.1,1.9-40.3,3.8-60.4,5.7c-5,0.5-10,1-15,1.3c-2,0.1-2.7,1-3.1,2.8c-8.4,35.5-16.9,70.9-25.4,106.4
		C67,273.9,55.1,323.5,43.2,373.1c-2.1,8.6-4.1,17.3-6.2,26C36.9,399.6,36.7,400,36.4,401.1"/>
	<path class="st0" d="M299.9,582.5c-71.3-0.9-134-24.4-187.7-71.4c-1.4-1.3-1.7-2.4-1.2-4.2c12.2-50.8,24.4-101.6,36.5-152.5
		c13-54.3,25.9-108.6,38.9-162.8c0.5-2.1,1.1-4.2,1.5-6.4c0.3-1.6,1-2.1,2.6-2.2c15.2-1.1,30.3-2.3,45.5-3.5
		c23.7-1.9,47.4-3.8,71.1-5.6c13.5-1,27.1-2.7,40.7-2.4c9.8,0.2,19.5,1.3,28.6,5.6c11.4,5.4,17.2,14.5,17.5,26.9
		c0.4,15.3-4.5,29.1-12.2,42.1c-10.4,17.6-25.4,30.5-42.4,41.2c-22.1,13.9-46.2,23.2-71.1,30.7c-16.7,5-33.7,9.1-50.9,12.2
		c-2,0.4-3,1.1-3.5,3.2c-2.8,12.1-5.7,24.1-8.6,36.1c-0.4,1.4-0.2,2.6,0.6,3.9c39.7,67.2,79.4,134.5,119.1,201.8
		c0.7,1.1,1.3,2.2,2,3.3c1.6,2.7,1.5,2.8-1.5,3c-6,0.4-12,0.8-17.9,1C304.9,582.6,302.4,582.5,299.9,582.5"/>
</g>
</svg>
