<?xml version="1.0" encoding="UTF-8"?>
<!-- Generator: Adobe Illustrator 25.2.3, SVG Export Plug-In . SVG Version: 6.00 Build 0)  --><svg xmlns="http://www.w3.org/2000/svg" version="1.1" id="Layer_1" x="0px" y="0px" viewBox="0 0 600 600" style="enable-background:new 0 0 600 600;" xml:space="preserve">
<style type="text/css">
	.st0{fill:#1C2F42;}
</style>
<g>
	<path class="st0" d="M36.38,397.6c-3.67-9.44-6.52-18.37-8.97-27.42c-7.32-27.14-10.74-54.79-9.58-82.87   C20.68,217.91,45.13,157.11,92,105.81c41.97-45.94,93.91-74.79,155-86.52c59.34-11.39,116.76-4.4,171.57,21.06   c61.14,28.4,106.42,73.32,136.01,133.87c14.63,29.95,23.65,61.64,26.5,94.88c7.19,83.8-17.56,157-73.88,219.43   c-17.4,19.29-37.55,35.36-59.66,49c-1.8,1.11-2.68,1.11-3.93-0.8c-27.13-41.53-54.33-83.02-81.51-124.52   c-9.94-15.16-19.83-30.35-29.83-45.47c-1.27-1.92-0.93-2.56,1.09-3.41c29.51-12.43,58.09-26.66,84.95-44.18   c20.21-13.18,39.06-28.03,55.35-45.92c13.73-15.09,25.19-31.71,32.25-50.97c7.93-21.62,11.75-43.93,8.59-66.97   c-3.16-23.07-15.02-40.47-35.23-52.1c-14.41-8.29-30.17-12.35-46.47-14.67c-15.91-2.27-31.91-2.78-47.95-2.27   c-16.5,0.53-32.91,2.38-49.34,3.91c-16.51,1.53-33.02,3.11-49.53,4.66c-18.2,1.71-36.41,3.43-54.61,5.14   c-16.19,1.52-32.38,3.03-48.57,4.55c-20.13,1.89-40.27,3.79-60.41,5.68c-4.99,0.47-9.98,1.01-14.99,1.34   c-1.99,0.13-2.7,0.99-3.14,2.85c-8.44,35.48-16.93,70.94-25.42,106.4c-11.88,49.63-23.76,99.25-35.64,148.87   c-2.07,8.65-4.13,17.31-6.21,25.97C36.88,396.07,36.71,396.51,36.38,397.6"/>
	<path class="st0" d="M299.92,578.96c-71.29-0.9-133.97-24.42-187.73-71.44c-1.45-1.27-1.67-2.4-1.24-4.19   c12.21-50.82,24.39-101.65,36.55-152.48c12.99-54.27,25.95-108.55,38.93-162.83c0.51-2.12,1.11-4.23,1.5-6.37   c0.28-1.55,1.02-2.11,2.58-2.22c15.17-1.13,30.33-2.32,45.49-3.51c23.71-1.87,47.42-3.82,71.13-5.62   c13.55-1.02,27.07-2.69,40.68-2.41c9.83,0.2,19.55,1.3,28.62,5.56c11.4,5.35,17.2,14.48,17.52,26.89   c0.39,15.26-4.49,29.15-12.18,42.1c-10.41,17.55-25.37,30.51-42.42,41.24c-22.1,13.9-46.18,23.25-71.08,30.67   c-16.74,4.99-33.72,9.06-50.9,12.22c-1.99,0.36-3,1.15-3.48,3.24c-2.78,12.06-5.7,24.09-8.64,36.12c-0.35,1.43-0.21,2.56,0.56,3.86   c39.72,67.23,79.39,134.49,119.07,201.75c0.66,1.11,1.31,2.23,1.97,3.35c1.57,2.69,1.55,2.83-1.49,3.03   c-5.97,0.4-11.95,0.75-17.93,1.03C304.94,579.06,302.43,578.96,299.92,578.96"/>
</g>
</svg>